<mxfile host="app.diagrams.net" agent="Mozilla/5.0 (Windows NT 10.0; Win64; x64; rv:126.0) Gecko/20100101 Firefox/126.0" version="26.0.11">
  <diagram name="Pagina-1" id="Apd_5TPEEnnPZveAGQyC">
    <mxGraphModel dx="1001" dy="566" grid="1" gridSize="10" guides="1" tooltips="1" connect="1" arrows="1" fold="1" page="1" pageScale="1" pageWidth="827" pageHeight="1169" math="0" shadow="0">
      <root>
        <mxCell id="0" />
        <mxCell id="1" parent="0" />
        <mxCell id="N6R94zlpCrdaRUp7dMYZ-1" value="utente" style="rounded=0;whiteSpace=wrap;html=1;" vertex="1" parent="1">
          <mxGeometry x="200" y="99" width="120" height="60" as="geometry" />
        </mxCell>
        <mxCell id="N6R94zlpCrdaRUp7dMYZ-2" value="" style="endArrow=oval;html=1;rounded=0;exitX=0.158;exitY=0;exitDx=0;exitDy=0;exitPerimeter=0;startArrow=none;startFill=0;endFill=1;" edge="1" parent="1">
          <mxGeometry width="50" height="50" relative="1" as="geometry">
            <mxPoint x="206.95999999999992" y="440" as="sourcePoint" />
            <mxPoint x="207" y="410" as="targetPoint" />
          </mxGeometry>
        </mxCell>
        <mxCell id="N6R94zlpCrdaRUp7dMYZ-3" value="&lt;font style=&quot;font-size: 9px;&quot;&gt;ID&lt;/font&gt;" style="text;html=1;align=center;verticalAlign=middle;whiteSpace=wrap;rounded=0;rotation=-90;" vertex="1" parent="1">
          <mxGeometry x="200" y="390" width="10" height="20" as="geometry" />
        </mxCell>
        <mxCell id="N6R94zlpCrdaRUp7dMYZ-4" value="" style="endArrow=oval;html=1;rounded=0;endFill=0;" edge="1" parent="1">
          <mxGeometry width="50" height="50" relative="1" as="geometry">
            <mxPoint x="238" y="99" as="sourcePoint" />
            <mxPoint x="238" y="69" as="targetPoint" />
          </mxGeometry>
        </mxCell>
        <mxCell id="N6R94zlpCrdaRUp7dMYZ-8" value="&lt;font style=&quot;font-size: 9px;&quot;&gt;Email&lt;/font&gt;" style="text;html=1;align=center;verticalAlign=middle;whiteSpace=wrap;rounded=0;rotation=-90;" vertex="1" parent="1">
          <mxGeometry x="224" y="47" width="24" height="10" as="geometry" />
        </mxCell>
        <mxCell id="N6R94zlpCrdaRUp7dMYZ-10" value="" style="endArrow=oval;html=1;rounded=0;exitX=0.326;exitY=-0.006;exitDx=0;exitDy=0;exitPerimeter=0;endFill=0;" edge="1" parent="1">
          <mxGeometry width="50" height="50" relative="1" as="geometry">
            <mxPoint x="258.94" y="99" as="sourcePoint" />
            <mxPoint x="259" y="69" as="targetPoint" />
          </mxGeometry>
        </mxCell>
        <mxCell id="N6R94zlpCrdaRUp7dMYZ-11" value="&lt;font style=&quot;font-size: 9px;&quot;&gt;Username&lt;/font&gt;" style="text;html=1;align=center;verticalAlign=middle;whiteSpace=wrap;rounded=0;rotation=-90;" vertex="1" parent="1">
          <mxGeometry x="246" y="37" width="24" height="10" as="geometry" />
        </mxCell>
        <mxCell id="N6R94zlpCrdaRUp7dMYZ-13" value="" style="endArrow=oval;html=1;rounded=0;exitX=0.326;exitY=-0.006;exitDx=0;exitDy=0;exitPerimeter=0;endFill=0;" edge="1" parent="1">
          <mxGeometry width="50" height="50" relative="1" as="geometry">
            <mxPoint x="280" y="99" as="sourcePoint" />
            <mxPoint x="280.06" y="69" as="targetPoint" />
          </mxGeometry>
        </mxCell>
        <mxCell id="N6R94zlpCrdaRUp7dMYZ-14" value="&lt;font style=&quot;font-size: 9px;&quot;&gt;Password&lt;/font&gt;" style="text;html=1;align=center;verticalAlign=middle;whiteSpace=wrap;rounded=0;rotation=-90;" vertex="1" parent="1">
          <mxGeometry x="266" y="38" width="24" height="10" as="geometry" />
        </mxCell>
        <mxCell id="N6R94zlpCrdaRUp7dMYZ-15" value="" style="endArrow=oval;html=1;rounded=0;exitX=0.326;exitY=-0.006;exitDx=0;exitDy=0;exitPerimeter=0;endFill=0;" edge="1" parent="1">
          <mxGeometry width="50" height="50" relative="1" as="geometry">
            <mxPoint x="303" y="99" as="sourcePoint" />
            <mxPoint x="303.06" y="69" as="targetPoint" />
          </mxGeometry>
        </mxCell>
        <mxCell id="N6R94zlpCrdaRUp7dMYZ-16" value="&lt;font style=&quot;font-size: 9px;&quot;&gt;Data_Iscrizione&lt;/font&gt;" style="text;html=1;align=center;verticalAlign=middle;whiteSpace=wrap;rounded=0;rotation=-90;" vertex="1" parent="1">
          <mxGeometry x="289" y="27" width="24" height="10" as="geometry" />
        </mxCell>
        <mxCell id="N6R94zlpCrdaRUp7dMYZ-17" value="amico" style="rhombus;whiteSpace=wrap;html=1;" vertex="1" parent="1">
          <mxGeometry x="40" y="89" width="80" height="80" as="geometry" />
        </mxCell>
        <mxCell id="N6R94zlpCrdaRUp7dMYZ-18" value="" style="endArrow=none;html=1;rounded=0;entryX=0;entryY=0.5;entryDx=0;entryDy=0;exitX=1;exitY=0.5;exitDx=0;exitDy=0;" edge="1" parent="1" source="N6R94zlpCrdaRUp7dMYZ-17" target="N6R94zlpCrdaRUp7dMYZ-1">
          <mxGeometry width="50" height="50" relative="1" as="geometry">
            <mxPoint x="40" y="300" as="sourcePoint" />
            <mxPoint x="90" y="250" as="targetPoint" />
          </mxGeometry>
        </mxCell>
        <mxCell id="N6R94zlpCrdaRUp7dMYZ-19" value="" style="endArrow=none;html=1;rounded=0;exitX=0;exitY=1;exitDx=0;exitDy=0;" edge="1" parent="1" source="N6R94zlpCrdaRUp7dMYZ-1">
          <mxGeometry width="50" height="50" relative="1" as="geometry">
            <mxPoint x="40" y="300" as="sourcePoint" />
            <mxPoint x="80" y="170" as="targetPoint" />
            <Array as="points">
              <mxPoint x="200" y="190" />
              <mxPoint x="200" y="240" />
              <mxPoint x="80" y="240" />
            </Array>
          </mxGeometry>
        </mxCell>
        <mxCell id="N6R94zlpCrdaRUp7dMYZ-20" value="&lt;font style=&quot;font-size: 9px;&quot;&gt;(0,N)&lt;/font&gt;" style="text;html=1;align=center;verticalAlign=middle;whiteSpace=wrap;rounded=0;" vertex="1" parent="1">
          <mxGeometry x="170" y="110" width="30" height="19" as="geometry" />
        </mxCell>
        <mxCell id="N6R94zlpCrdaRUp7dMYZ-21" value="&lt;font style=&quot;font-size: 9px;&quot;&gt;(0,N)&lt;/font&gt;" style="text;html=1;align=center;verticalAlign=middle;whiteSpace=wrap;rounded=0;" vertex="1" parent="1">
          <mxGeometry x="227" y="159" width="30" height="19" as="geometry" />
        </mxCell>
        <mxCell id="N6R94zlpCrdaRUp7dMYZ-22" value="partita" style="rounded=0;whiteSpace=wrap;html=1;" vertex="1" parent="1">
          <mxGeometry x="620" y="99" width="120" height="60" as="geometry" />
        </mxCell>
        <mxCell id="N6R94zlpCrdaRUp7dMYZ-23" value="fa parte" style="rhombus;whiteSpace=wrap;html=1;" vertex="1" parent="1">
          <mxGeometry x="430" y="89" width="80" height="80" as="geometry" />
        </mxCell>
        <mxCell id="N6R94zlpCrdaRUp7dMYZ-24" value="" style="endArrow=none;html=1;rounded=0;exitX=1;exitY=0.5;exitDx=0;exitDy=0;entryX=0;entryY=0.5;entryDx=0;entryDy=0;" edge="1" parent="1" source="N6R94zlpCrdaRUp7dMYZ-1" target="N6R94zlpCrdaRUp7dMYZ-23">
          <mxGeometry width="50" height="50" relative="1" as="geometry">
            <mxPoint x="500" y="270" as="sourcePoint" />
            <mxPoint x="550" y="220" as="targetPoint" />
          </mxGeometry>
        </mxCell>
        <mxCell id="N6R94zlpCrdaRUp7dMYZ-25" value="" style="endArrow=none;html=1;rounded=0;exitX=1;exitY=0.5;exitDx=0;exitDy=0;" edge="1" parent="1" source="N6R94zlpCrdaRUp7dMYZ-23">
          <mxGeometry width="50" height="50" relative="1" as="geometry">
            <mxPoint x="510" y="129" as="sourcePoint" />
            <mxPoint x="620" y="129" as="targetPoint" />
          </mxGeometry>
        </mxCell>
        <mxCell id="N6R94zlpCrdaRUp7dMYZ-26" value="&lt;font style=&quot;font-size: 9px;&quot;&gt;(0,N)&lt;/font&gt;" style="text;html=1;align=center;verticalAlign=middle;whiteSpace=wrap;rounded=0;" vertex="1" parent="1">
          <mxGeometry x="320" y="103" width="30" height="19" as="geometry" />
        </mxCell>
        <mxCell id="N6R94zlpCrdaRUp7dMYZ-29" value="&lt;font style=&quot;font-size: 9px;&quot;&gt;(2,N)&lt;/font&gt;" style="text;html=1;align=center;verticalAlign=middle;whiteSpace=wrap;rounded=0;" vertex="1" parent="1">
          <mxGeometry x="590" y="104" width="30" height="19" as="geometry" />
        </mxCell>
        <mxCell id="N6R94zlpCrdaRUp7dMYZ-32" value="" style="endArrow=oval;html=1;rounded=0;exitX=0.158;exitY=0;exitDx=0;exitDy=0;exitPerimeter=0;startArrow=none;startFill=0;endFill=1;" edge="1" parent="1">
          <mxGeometry width="50" height="50" relative="1" as="geometry">
            <mxPoint x="640" y="99" as="sourcePoint" />
            <mxPoint x="640.04" y="69" as="targetPoint" />
          </mxGeometry>
        </mxCell>
        <mxCell id="N6R94zlpCrdaRUp7dMYZ-33" value="&lt;font style=&quot;font-size: 9px;&quot;&gt;ID&lt;/font&gt;" style="text;html=1;align=center;verticalAlign=middle;whiteSpace=wrap;rounded=0;rotation=-90;" vertex="1" parent="1">
          <mxGeometry x="633" y="49" width="10" height="20" as="geometry" />
        </mxCell>
        <mxCell id="N6R94zlpCrdaRUp7dMYZ-43" value="possibilitÃ " style="rounded=0;whiteSpace=wrap;html=1;" vertex="1" parent="1">
          <mxGeometry x="378" y="1000" width="120" height="60" as="geometry" />
        </mxCell>
        <mxCell id="N6R94zlpCrdaRUp7dMYZ-44" value="imprevisto" style="rounded=0;whiteSpace=wrap;html=1;" vertex="1" parent="1">
          <mxGeometry x="531" y="1001" width="120" height="60" as="geometry" />
        </mxCell>
        <mxCell id="N6R94zlpCrdaRUp7dMYZ-50" value="" style="endArrow=oval;html=1;rounded=0;startArrow=none;startFill=0;endFill=1;" edge="1" parent="1">
          <mxGeometry width="50" height="50" relative="1" as="geometry">
            <mxPoint x="393" y="1060" as="sourcePoint" />
            <mxPoint x="393" y="1090" as="targetPoint" />
          </mxGeometry>
        </mxCell>
        <mxCell id="N6R94zlpCrdaRUp7dMYZ-52" value="&lt;font style=&quot;font-size: 9px;&quot;&gt;ID&lt;/font&gt;" style="text;html=1;align=center;verticalAlign=middle;whiteSpace=wrap;rounded=0;rotation=-90;" vertex="1" parent="1">
          <mxGeometry x="386" y="1091" width="10" height="20" as="geometry" />
        </mxCell>
        <mxCell id="N6R94zlpCrdaRUp7dMYZ-59" value="" style="endArrow=oval;html=1;rounded=0;startArrow=none;startFill=0;endFill=1;" edge="1" parent="1">
          <mxGeometry width="50" height="50" relative="1" as="geometry">
            <mxPoint x="546" y="1061" as="sourcePoint" />
            <mxPoint x="546" y="1091" as="targetPoint" />
          </mxGeometry>
        </mxCell>
        <mxCell id="N6R94zlpCrdaRUp7dMYZ-60" value="&lt;font style=&quot;font-size: 9px;&quot;&gt;ID&lt;/font&gt;" style="text;html=1;align=center;verticalAlign=middle;whiteSpace=wrap;rounded=0;rotation=-90;" vertex="1" parent="1">
          <mxGeometry x="539" y="1092" width="10" height="20" as="geometry" />
        </mxCell>
        <mxCell id="N6R94zlpCrdaRUp7dMYZ-63" value="" style="endArrow=oval;html=1;rounded=0;endFill=0;exitX=0.374;exitY=0.993;exitDx=0;exitDy=0;exitPerimeter=0;" edge="1" parent="1">
          <mxGeometry width="50" height="50" relative="1" as="geometry">
            <mxPoint x="419.88" y="1060.58" as="sourcePoint" />
            <mxPoint x="420" y="1091" as="targetPoint" />
          </mxGeometry>
        </mxCell>
        <mxCell id="N6R94zlpCrdaRUp7dMYZ-67" value="proprietÃ " style="rounded=0;whiteSpace=wrap;html=1;" vertex="1" parent="1">
          <mxGeometry x="197" y="440" width="120" height="60" as="geometry" />
        </mxCell>
        <mxCell id="N6R94zlpCrdaRUp7dMYZ-69" value="" style="endArrow=oval;html=1;rounded=0;endFill=0;exitX=0.167;exitY=1.005;exitDx=0;exitDy=0;exitPerimeter=0;" edge="1" parent="1" source="N6R94zlpCrdaRUp7dMYZ-67">
          <mxGeometry width="50" height="50" relative="1" as="geometry">
            <mxPoint x="217" y="503" as="sourcePoint" />
            <mxPoint x="217" y="530" as="targetPoint" />
          </mxGeometry>
        </mxCell>
        <mxCell id="N6R94zlpCrdaRUp7dMYZ-71" value="&lt;font style=&quot;font-size: 9px;&quot;&gt;colore&lt;/font&gt;" style="text;html=1;align=center;verticalAlign=middle;whiteSpace=wrap;rounded=0;rotation=-90;" vertex="1" parent="1">
          <mxGeometry x="202" y="542" width="24" height="10" as="geometry" />
        </mxCell>
        <mxCell id="N6R94zlpCrdaRUp7dMYZ-72" value="" style="endArrow=oval;html=1;rounded=0;endFill=0;exitX=0.167;exitY=1.005;exitDx=0;exitDy=0;exitPerimeter=0;" edge="1" parent="1">
          <mxGeometry width="50" height="50" relative="1" as="geometry">
            <mxPoint x="237" y="500" as="sourcePoint" />
            <mxPoint x="237" y="530" as="targetPoint" />
          </mxGeometry>
        </mxCell>
        <mxCell id="N6R94zlpCrdaRUp7dMYZ-73" value="&lt;font style=&quot;font-size: 9px;&quot;&gt;&lt;font&gt;Nome&lt;/font&gt;&lt;font&gt;&lt;br&gt;&lt;/font&gt;&lt;/font&gt;" style="text;html=1;align=center;verticalAlign=middle;whiteSpace=wrap;rounded=0;rotation=-90;" vertex="1" parent="1">
          <mxGeometry x="223" y="543" width="24" height="10" as="geometry" />
        </mxCell>
        <mxCell id="N6R94zlpCrdaRUp7dMYZ-74" value="" style="endArrow=oval;html=1;rounded=0;endFill=0;exitX=0.167;exitY=1.005;exitDx=0;exitDy=0;exitPerimeter=0;" edge="1" parent="1">
          <mxGeometry width="50" height="50" relative="1" as="geometry">
            <mxPoint x="221.86000000000013" y="810" as="sourcePoint" />
            <mxPoint x="221.86000000000013" y="840" as="targetPoint" />
          </mxGeometry>
        </mxCell>
        <mxCell id="N6R94zlpCrdaRUp7dMYZ-75" value="&lt;font style=&quot;font-size: 9px;&quot;&gt;Prezzo_acquisto&lt;/font&gt;" style="text;html=1;align=center;verticalAlign=middle;whiteSpace=wrap;rounded=0;rotation=-90;" vertex="1" parent="1">
          <mxGeometry x="207" y="875" width="24" height="10" as="geometry" />
        </mxCell>
        <mxCell id="N6R94zlpCrdaRUp7dMYZ-77" value="" style="endArrow=oval;html=1;rounded=0;endFill=0;exitX=0.167;exitY=1.005;exitDx=0;exitDy=0;exitPerimeter=0;" edge="1" parent="1">
          <mxGeometry width="50" height="50" relative="1" as="geometry">
            <mxPoint x="244" y="810" as="sourcePoint" />
            <mxPoint x="244" y="840" as="targetPoint" />
          </mxGeometry>
        </mxCell>
        <mxCell id="N6R94zlpCrdaRUp7dMYZ-78" value="&lt;font style=&quot;font-size: 9px;&quot;&gt;Prezzo_casa&lt;/font&gt;" style="text;html=1;align=center;verticalAlign=middle;whiteSpace=wrap;rounded=0;rotation=-90;" vertex="1" parent="1">
          <mxGeometry x="230" y="868" width="24" height="10" as="geometry" />
        </mxCell>
        <mxCell id="N6R94zlpCrdaRUp7dMYZ-80" value="" style="rhombus;whiteSpace=wrap;html=1;" vertex="1" parent="1">
          <mxGeometry x="217" y="585" width="80" height="80" as="geometry" />
        </mxCell>
        <mxCell id="N6R94zlpCrdaRUp7dMYZ-81" value="" style="endArrow=none;html=1;rounded=0;entryX=0.5;entryY=1;entryDx=0;entryDy=0;exitX=0.5;exitY=0;exitDx=0;exitDy=0;" edge="1" parent="1" source="N6R94zlpCrdaRUp7dMYZ-80" target="N6R94zlpCrdaRUp7dMYZ-67">
          <mxGeometry width="50" height="50" relative="1" as="geometry">
            <mxPoint x="537" y="469.76" as="sourcePoint" />
            <mxPoint x="467" y="469.76" as="targetPoint" />
          </mxGeometry>
        </mxCell>
        <mxCell id="N6R94zlpCrdaRUp7dMYZ-82" value="prezzo" style="rounded=0;whiteSpace=wrap;html=1;" vertex="1" parent="1">
          <mxGeometry x="200" y="750" width="120" height="60" as="geometry" />
        </mxCell>
        <mxCell id="N6R94zlpCrdaRUp7dMYZ-85" value="" style="endArrow=oval;html=1;rounded=0;endFill=0;exitX=0.167;exitY=1.005;exitDx=0;exitDy=0;exitPerimeter=0;" edge="1" parent="1">
          <mxGeometry width="50" height="50" relative="1" as="geometry">
            <mxPoint x="268" y="810" as="sourcePoint" />
            <mxPoint x="268" y="840" as="targetPoint" />
          </mxGeometry>
        </mxCell>
        <mxCell id="N6R94zlpCrdaRUp7dMYZ-86" value="&lt;font style=&quot;font-size: 9px;&quot;&gt;Valore_ipotecario&lt;/font&gt;" style="text;html=1;align=center;verticalAlign=middle;whiteSpace=wrap;rounded=0;rotation=-90;" vertex="1" parent="1">
          <mxGeometry x="254" y="877" width="24" height="10" as="geometry" />
        </mxCell>
        <mxCell id="N6R94zlpCrdaRUp7dMYZ-88" value="" style="rhombus;whiteSpace=wrap;html=1;" vertex="1" parent="1">
          <mxGeometry x="217" y="247" width="80" height="80" as="geometry" />
        </mxCell>
        <mxCell id="N6R94zlpCrdaRUp7dMYZ-89" value="" style="endArrow=none;html=1;rounded=0;entryX=0.5;entryY=1;entryDx=0;entryDy=0;exitX=0.5;exitY=0;exitDx=0;exitDy=0;" edge="1" parent="1" source="N6R94zlpCrdaRUp7dMYZ-88">
          <mxGeometry width="50" height="50" relative="1" as="geometry">
            <mxPoint x="257" y="240" as="sourcePoint" />
            <mxPoint x="257" y="159" as="targetPoint" />
          </mxGeometry>
        </mxCell>
        <mxCell id="N6R94zlpCrdaRUp7dMYZ-90" value="" style="endArrow=none;html=1;rounded=0;entryX=0.5;entryY=1;entryDx=0;entryDy=0;exitX=0.5;exitY=0;exitDx=0;exitDy=0;" edge="1" parent="1" source="N6R94zlpCrdaRUp7dMYZ-67" target="N6R94zlpCrdaRUp7dMYZ-88">
          <mxGeometry width="50" height="50" relative="1" as="geometry">
            <mxPoint x="407" y="310" as="sourcePoint" />
            <mxPoint x="457" y="260" as="targetPoint" />
          </mxGeometry>
        </mxCell>
        <mxCell id="N6R94zlpCrdaRUp7dMYZ-91" value="" style="endArrow=none;html=1;rounded=0;entryX=0.5;entryY=1;entryDx=0;entryDy=0;" edge="1" parent="1" target="N6R94zlpCrdaRUp7dMYZ-80">
          <mxGeometry width="50" height="50" relative="1" as="geometry">
            <mxPoint x="257" y="750" as="sourcePoint" />
            <mxPoint x="256" y="670" as="targetPoint" />
          </mxGeometry>
        </mxCell>
        <mxCell id="N6R94zlpCrdaRUp7dMYZ-93" value="" style="endArrow=oval;html=1;rounded=0;exitX=0.061;exitY=0.562;exitDx=0;exitDy=0;exitPerimeter=0;endFill=0;" edge="1" parent="1" source="N6R94zlpCrdaRUp7dMYZ-23">
          <mxGeometry width="50" height="50" relative="1" as="geometry">
            <mxPoint x="434.84000000000003" y="133" as="sourcePoint" />
            <mxPoint x="435.06" y="164.04000000000002" as="targetPoint" />
          </mxGeometry>
        </mxCell>
        <mxCell id="N6R94zlpCrdaRUp7dMYZ-94" value="&lt;font style=&quot;font-size: 9px;&quot;&gt;Soldi&lt;/font&gt;" style="text;html=1;align=center;verticalAlign=middle;whiteSpace=wrap;rounded=0;rotation=-90;" vertex="1" parent="1">
          <mxGeometry x="422" y="177.04000000000002" width="24" height="10" as="geometry" />
        </mxCell>
        <mxCell id="N6R94zlpCrdaRUp7dMYZ-102" value="" style="endArrow=oval;html=1;rounded=0;endFill=0;" edge="1" parent="1">
          <mxGeometry width="50" height="50" relative="1" as="geometry">
            <mxPoint x="507" y="126" as="sourcePoint" />
            <mxPoint x="507" y="91" as="targetPoint" />
          </mxGeometry>
        </mxCell>
        <mxCell id="N6R94zlpCrdaRUp7dMYZ-103" value="&lt;font style=&quot;font-size: 9px;&quot;&gt;posizione_pedina&lt;/font&gt;" style="text;html=1;align=center;verticalAlign=middle;whiteSpace=wrap;rounded=0;rotation=-90;" vertex="1" parent="1">
          <mxGeometry x="492" y="44.00000000000003" width="24" height="10" as="geometry" />
        </mxCell>
        <mxCell id="N6R94zlpCrdaRUp7dMYZ-104" value="" style="endArrow=oval;html=1;rounded=0;endFill=0;" edge="1" parent="1">
          <mxGeometry width="50" height="50" relative="1" as="geometry">
            <mxPoint x="670" y="99" as="sourcePoint" />
            <mxPoint x="670" y="70" as="targetPoint" />
          </mxGeometry>
        </mxCell>
        <mxCell id="N6R94zlpCrdaRUp7dMYZ-105" value="&lt;font style=&quot;font-size: 9px;&quot;&gt;&lt;font&gt;Turno_player&lt;/font&gt;&lt;font&gt;&lt;br&gt;&lt;/font&gt;&lt;/font&gt;" style="text;html=1;align=center;verticalAlign=middle;whiteSpace=wrap;rounded=0;rotation=-90;" vertex="1" parent="1">
          <mxGeometry x="657" y="33" width="24" height="10" as="geometry" />
        </mxCell>
        <mxCell id="N6R94zlpCrdaRUp7dMYZ-106" value="" style="endArrow=oval;html=1;rounded=0;endFill=0;exitX=0.167;exitY=1.005;exitDx=0;exitDy=0;exitPerimeter=0;" edge="1" parent="1">
          <mxGeometry width="50" height="50" relative="1" as="geometry">
            <mxPoint x="278" y="500" as="sourcePoint" />
            <mxPoint x="278" y="530" as="targetPoint" />
          </mxGeometry>
        </mxCell>
        <mxCell id="N6R94zlpCrdaRUp7dMYZ-107" value="&lt;font style=&quot;font-size: 9px;&quot;&gt;Case&lt;/font&gt;" style="text;html=1;align=center;verticalAlign=middle;whiteSpace=wrap;rounded=0;rotation=-90;" vertex="1" parent="1">
          <mxGeometry x="263.5" y="543.5" width="24" height="7" as="geometry" />
        </mxCell>
        <mxCell id="N6R94zlpCrdaRUp7dMYZ-108" value="&lt;font style=&quot;font-size: 9px;&quot;&gt;desc&lt;/font&gt;" style="text;html=1;align=center;verticalAlign=middle;whiteSpace=wrap;rounded=0;rotation=-90;" vertex="1" parent="1">
          <mxGeometry x="405" y="1102.5" width="24" height="10" as="geometry" />
        </mxCell>
        <mxCell id="N6R94zlpCrdaRUp7dMYZ-109" value="" style="endArrow=oval;html=1;rounded=0;endFill=0;exitX=0.374;exitY=0.993;exitDx=0;exitDy=0;exitPerimeter=0;" edge="1" parent="1">
          <mxGeometry width="50" height="50" relative="1" as="geometry">
            <mxPoint x="564.88" y="1059.58" as="sourcePoint" />
            <mxPoint x="565" y="1090" as="targetPoint" />
          </mxGeometry>
        </mxCell>
        <mxCell id="N6R94zlpCrdaRUp7dMYZ-110" value="&lt;font style=&quot;font-size: 9px;&quot;&gt;desc&lt;/font&gt;" style="text;html=1;align=center;verticalAlign=middle;whiteSpace=wrap;rounded=0;rotation=-90;" vertex="1" parent="1">
          <mxGeometry x="550" y="1101.5" width="24" height="10" as="geometry" />
        </mxCell>
        <mxCell id="N6R94zlpCrdaRUp7dMYZ-117" value="" style="rhombus;whiteSpace=wrap;html=1;" vertex="1" parent="1">
          <mxGeometry x="480" y="245" width="80" height="80" as="geometry" />
        </mxCell>
        <mxCell id="N6R94zlpCrdaRUp7dMYZ-119" value="" style="endArrow=none;html=1;rounded=0;exitX=0.5;exitY=0;exitDx=0;exitDy=0;entryX=0.5;entryY=1;entryDx=0;entryDy=0;" edge="1" parent="1" source="N6R94zlpCrdaRUp7dMYZ-67" target="N6R94zlpCrdaRUp7dMYZ-117">
          <mxGeometry width="50" height="50" relative="1" as="geometry">
            <mxPoint x="267" y="450" as="sourcePoint" />
            <mxPoint x="267" y="370" as="targetPoint" />
          </mxGeometry>
        </mxCell>
        <mxCell id="N6R94zlpCrdaRUp7dMYZ-120" value="" style="endArrow=none;html=1;rounded=0;entryX=0.5;entryY=1;entryDx=0;entryDy=0;exitX=0.5;exitY=0;exitDx=0;exitDy=0;" edge="1" parent="1" source="N6R94zlpCrdaRUp7dMYZ-117">
          <mxGeometry width="50" height="50" relative="1" as="geometry">
            <mxPoint x="504" y="239" as="sourcePoint" />
            <mxPoint x="631" y="159" as="targetPoint" />
          </mxGeometry>
        </mxCell>
        <mxCell id="N6R94zlpCrdaRUp7dMYZ-124" value="&lt;font style=&quot;font-size: 9px;&quot;&gt;(0,1)&lt;/font&gt;" style="text;html=1;align=center;verticalAlign=middle;whiteSpace=wrap;rounded=0;" vertex="1" parent="1">
          <mxGeometry x="224" y="413" width="30" height="19" as="geometry" />
        </mxCell>
        <mxCell id="N6R94zlpCrdaRUp7dMYZ-126" value="" style="endArrow=oval;html=1;rounded=0;endFill=0;exitX=0.06;exitY=0.44;exitDx=0;exitDy=0;exitPerimeter=0;" edge="1" parent="1" source="N6R94zlpCrdaRUp7dMYZ-23">
          <mxGeometry width="50" height="50" relative="1" as="geometry">
            <mxPoint x="434.80000000000007" y="123.87999999999997" as="sourcePoint" />
            <mxPoint x="435" y="91" as="targetPoint" />
          </mxGeometry>
        </mxCell>
        <mxCell id="N6R94zlpCrdaRUp7dMYZ-127" value="&lt;font style=&quot;font-size: 9px;&quot;&gt;Uscita_Prigione&lt;/font&gt;" style="text;html=1;align=center;verticalAlign=middle;whiteSpace=wrap;rounded=0;rotation=-90;" vertex="1" parent="1">
          <mxGeometry x="422" y="47.00000000000003" width="24" height="10" as="geometry" />
        </mxCell>
        <mxCell id="N6R94zlpCrdaRUp7dMYZ-128" value="proprietÃ " style="rounded=0;whiteSpace=wrap;html=1;" vertex="1" parent="1">
          <mxGeometry x="619" y="440" width="120" height="60" as="geometry" />
        </mxCell>
        <mxCell id="N6R94zlpCrdaRUp7dMYZ-129" value="" style="endArrow=oval;html=1;rounded=0;endFill=0;exitX=0.167;exitY=1.005;exitDx=0;exitDy=0;exitPerimeter=0;" edge="1" parent="1" source="N6R94zlpCrdaRUp7dMYZ-128">
          <mxGeometry width="50" height="50" relative="1" as="geometry">
            <mxPoint x="639" y="503" as="sourcePoint" />
            <mxPoint x="639" y="530" as="targetPoint" />
          </mxGeometry>
        </mxCell>
        <mxCell id="N6R94zlpCrdaRUp7dMYZ-130" value="&lt;font style=&quot;font-size: 9px;&quot;&gt;colore&lt;/font&gt;" style="text;html=1;align=center;verticalAlign=middle;whiteSpace=wrap;rounded=0;rotation=-90;" vertex="1" parent="1">
          <mxGeometry x="624" y="542" width="24" height="10" as="geometry" />
        </mxCell>
        <mxCell id="N6R94zlpCrdaRUp7dMYZ-131" value="" style="endArrow=oval;html=1;rounded=0;endFill=0;exitX=0.167;exitY=1.005;exitDx=0;exitDy=0;exitPerimeter=0;" edge="1" parent="1">
          <mxGeometry width="50" height="50" relative="1" as="geometry">
            <mxPoint x="659" y="500" as="sourcePoint" />
            <mxPoint x="659" y="530" as="targetPoint" />
          </mxGeometry>
        </mxCell>
        <mxCell id="N6R94zlpCrdaRUp7dMYZ-132" value="&lt;font style=&quot;font-size: 9px;&quot;&gt;&lt;font&gt;Nome&lt;/font&gt;&lt;font&gt;&lt;br&gt;&lt;/font&gt;&lt;/font&gt;" style="text;html=1;align=center;verticalAlign=middle;whiteSpace=wrap;rounded=0;rotation=-90;" vertex="1" parent="1">
          <mxGeometry x="645" y="543" width="24" height="10" as="geometry" />
        </mxCell>
        <mxCell id="N6R94zlpCrdaRUp7dMYZ-134" value="" style="endArrow=oval;html=1;rounded=0;endFill=0;exitX=0.167;exitY=1.005;exitDx=0;exitDy=0;exitPerimeter=0;" edge="1" parent="1">
          <mxGeometry width="50" height="50" relative="1" as="geometry">
            <mxPoint x="700" y="500" as="sourcePoint" />
            <mxPoint x="700" y="530" as="targetPoint" />
          </mxGeometry>
        </mxCell>
        <mxCell id="N6R94zlpCrdaRUp7dMYZ-135" value="&lt;font style=&quot;font-size: 9px;&quot;&gt;Case&lt;/font&gt;" style="text;html=1;align=center;verticalAlign=middle;whiteSpace=wrap;rounded=0;rotation=-90;" vertex="1" parent="1">
          <mxGeometry x="685.5" y="543.5" width="24" height="7" as="geometry" />
        </mxCell>
        <mxCell id="N6R94zlpCrdaRUp7dMYZ-138" value="&lt;font style=&quot;font-size: 9px;&quot;&gt;(0,1)&lt;/font&gt;" style="text;html=1;align=center;verticalAlign=middle;whiteSpace=wrap;rounded=0;" vertex="1" parent="1">
          <mxGeometry x="681.5" y="419" width="30" height="19" as="geometry" />
        </mxCell>
        <mxCell id="N6R94zlpCrdaRUp7dMYZ-139" value="" style="rhombus;whiteSpace=wrap;html=1;" vertex="1" parent="1">
          <mxGeometry x="639" y="245" width="80" height="80" as="geometry" />
        </mxCell>
        <mxCell id="N6R94zlpCrdaRUp7dMYZ-140" value="" style="endArrow=none;html=1;rounded=0;entryX=0.5;entryY=1;entryDx=0;entryDy=0;" edge="1" parent="1" source="N6R94zlpCrdaRUp7dMYZ-139" target="N6R94zlpCrdaRUp7dMYZ-22">
          <mxGeometry width="50" height="50" relative="1" as="geometry">
            <mxPoint x="550" y="248" as="sourcePoint" />
            <mxPoint x="641" y="169" as="targetPoint" />
          </mxGeometry>
        </mxCell>
        <mxCell id="N6R94zlpCrdaRUp7dMYZ-141" value="" style="endArrow=none;html=1;rounded=0;exitX=0.5;exitY=0;exitDx=0;exitDy=0;entryX=0.5;entryY=1;entryDx=0;entryDy=0;" edge="1" parent="1" source="N6R94zlpCrdaRUp7dMYZ-128" target="N6R94zlpCrdaRUp7dMYZ-139">
          <mxGeometry width="50" height="50" relative="1" as="geometry">
            <mxPoint x="267" y="450" as="sourcePoint" />
            <mxPoint x="550" y="328" as="targetPoint" />
          </mxGeometry>
        </mxCell>
        <mxCell id="N6R94zlpCrdaRUp7dMYZ-142" value="" style="endArrow=oval;html=1;rounded=0;exitX=0.158;exitY=0;exitDx=0;exitDy=0;exitPerimeter=0;startArrow=none;startFill=0;endFill=1;" edge="1" parent="1">
          <mxGeometry width="50" height="50" relative="1" as="geometry">
            <mxPoint x="721.4599999999999" y="440" as="sourcePoint" />
            <mxPoint x="721.5" y="410" as="targetPoint" />
          </mxGeometry>
        </mxCell>
        <mxCell id="N6R94zlpCrdaRUp7dMYZ-143" value="&lt;font style=&quot;font-size: 9px;&quot;&gt;ID&lt;/font&gt;" style="text;html=1;align=center;verticalAlign=middle;whiteSpace=wrap;rounded=0;rotation=-90;" vertex="1" parent="1">
          <mxGeometry x="714.5" y="390" width="10" height="20" as="geometry" />
        </mxCell>
        <mxCell id="N6R94zlpCrdaRUp7dMYZ-144" value="" style="rhombus;whiteSpace=wrap;html=1;" vertex="1" parent="1">
          <mxGeometry x="361" y="245" width="80" height="80" as="geometry" />
        </mxCell>
        <mxCell id="N6R94zlpCrdaRUp7dMYZ-145" value="" style="endArrow=oval;html=1;rounded=0;exitX=0.158;exitY=0;exitDx=0;exitDy=0;exitPerimeter=0;startArrow=none;startFill=0;endFill=1;" edge="1" parent="1">
          <mxGeometry width="50" height="50" relative="1" as="geometry">
            <mxPoint x="213.95999999999992" y="750" as="sourcePoint" />
            <mxPoint x="214" y="720" as="targetPoint" />
          </mxGeometry>
        </mxCell>
        <mxCell id="N6R94zlpCrdaRUp7dMYZ-146" value="&lt;font style=&quot;font-size: 9px;&quot;&gt;ID&lt;/font&gt;" style="text;html=1;align=center;verticalAlign=middle;whiteSpace=wrap;rounded=0;rotation=-90;" vertex="1" parent="1">
          <mxGeometry x="207" y="700" width="10" height="20" as="geometry" />
        </mxCell>
        <mxCell id="N6R94zlpCrdaRUp7dMYZ-147" value="" style="endArrow=oval;html=1;rounded=0;exitX=0.158;exitY=0;exitDx=0;exitDy=0;exitPerimeter=0;startArrow=none;startFill=0;endFill=0;" edge="1" parent="1">
          <mxGeometry width="50" height="50" relative="1" as="geometry">
            <mxPoint x="307.99999999999994" y="750" as="sourcePoint" />
            <mxPoint x="308.04" y="720" as="targetPoint" />
          </mxGeometry>
        </mxCell>
        <mxCell id="N6R94zlpCrdaRUp7dMYZ-148" value="&lt;font style=&quot;font-size: 9px;&quot;&gt;4_Casa&lt;br&gt;&lt;/font&gt;" style="text;html=1;align=center;verticalAlign=middle;whiteSpace=wrap;rounded=0;rotation=-90;" vertex="1" parent="1">
          <mxGeometry x="300" y="688" width="10" height="20" as="geometry" />
        </mxCell>
        <mxCell id="N6R94zlpCrdaRUp7dMYZ-149" value="" style="endArrow=oval;html=1;rounded=0;exitX=0.158;exitY=0;exitDx=0;exitDy=0;exitPerimeter=0;startArrow=none;startFill=0;endFill=0;" edge="1" parent="1">
          <mxGeometry width="50" height="50" relative="1" as="geometry">
            <mxPoint x="293.4599999999999" y="750" as="sourcePoint" />
            <mxPoint x="293.5" y="720" as="targetPoint" />
          </mxGeometry>
        </mxCell>
        <mxCell id="N6R94zlpCrdaRUp7dMYZ-150" value="&lt;font style=&quot;font-size: 9px;&quot;&gt;3_Casa&lt;/font&gt;" style="text;html=1;align=center;verticalAlign=middle;whiteSpace=wrap;rounded=0;rotation=-90;" vertex="1" parent="1">
          <mxGeometry x="287.5" y="689" width="10" height="20" as="geometry" />
        </mxCell>
        <mxCell id="N6R94zlpCrdaRUp7dMYZ-151" value="" style="endArrow=oval;html=1;rounded=0;exitX=0.158;exitY=0;exitDx=0;exitDy=0;exitPerimeter=0;startArrow=none;startFill=0;endFill=0;" edge="1" parent="1">
          <mxGeometry width="50" height="50" relative="1" as="geometry">
            <mxPoint x="278.9599999999999" y="750" as="sourcePoint" />
            <mxPoint x="279" y="720" as="targetPoint" />
          </mxGeometry>
        </mxCell>
        <mxCell id="N6R94zlpCrdaRUp7dMYZ-152" value="&lt;font style=&quot;font-size: 9px;&quot;&gt;2_Casa&lt;br&gt;&lt;/font&gt;" style="text;html=1;align=center;verticalAlign=middle;whiteSpace=wrap;rounded=0;rotation=-90;" vertex="1" parent="1">
          <mxGeometry x="272" y="688" width="10" height="20" as="geometry" />
        </mxCell>
        <mxCell id="N6R94zlpCrdaRUp7dMYZ-153" value="" style="endArrow=oval;html=1;rounded=0;exitX=0.158;exitY=0;exitDx=0;exitDy=0;exitPerimeter=0;startArrow=none;startFill=0;endFill=0;" edge="1" parent="1">
          <mxGeometry width="50" height="50" relative="1" as="geometry">
            <mxPoint x="264.9599999999999" y="750" as="sourcePoint" />
            <mxPoint x="265" y="720" as="targetPoint" />
          </mxGeometry>
        </mxCell>
        <mxCell id="N6R94zlpCrdaRUp7dMYZ-154" value="&lt;font style=&quot;font-size: 9px;&quot;&gt;1_Casa&lt;br&gt;&lt;/font&gt;" style="text;html=1;align=center;verticalAlign=middle;whiteSpace=wrap;rounded=0;rotation=-90;" vertex="1" parent="1">
          <mxGeometry x="258" y="688" width="10" height="20" as="geometry" />
        </mxCell>
        <mxCell id="N6R94zlpCrdaRUp7dMYZ-156" value="" style="endArrow=oval;html=1;rounded=0;exitX=0.158;exitY=0;exitDx=0;exitDy=0;exitPerimeter=0;startArrow=none;startFill=0;endFill=0;" edge="1" parent="1">
          <mxGeometry width="50" height="50" relative="1" as="geometry">
            <mxPoint x="319.99999999999994" y="750" as="sourcePoint" />
            <mxPoint x="320.04" y="720" as="targetPoint" />
          </mxGeometry>
        </mxCell>
        <mxCell id="N6R94zlpCrdaRUp7dMYZ-157" value="&lt;font style=&quot;font-size: 9px;&quot;&gt;Albergo&lt;/font&gt;" style="text;html=1;align=center;verticalAlign=middle;whiteSpace=wrap;rounded=0;rotation=-90;" vertex="1" parent="1">
          <mxGeometry x="313" y="687" width="10" height="20" as="geometry" />
        </mxCell>
        <mxCell id="N6R94zlpCrdaRUp7dMYZ-158" value="" style="endArrow=none;html=1;rounded=0;entryX=0.5;entryY=0;entryDx=0;entryDy=0;exitX=1;exitY=0;exitDx=0;exitDy=0;" edge="1" parent="1" source="N6R94zlpCrdaRUp7dMYZ-21" target="N6R94zlpCrdaRUp7dMYZ-144">
          <mxGeometry width="50" height="50" relative="1" as="geometry">
            <mxPoint x="260" y="160" as="sourcePoint" />
            <mxPoint x="378" y="178" as="targetPoint" />
          </mxGeometry>
        </mxCell>
        <mxCell id="N6R94zlpCrdaRUp7dMYZ-159" value="" style="endArrow=none;html=1;rounded=0;entryX=0.5;entryY=0;entryDx=0;entryDy=0;exitX=0.5;exitY=1;exitDx=0;exitDy=0;" edge="1" parent="1" source="N6R94zlpCrdaRUp7dMYZ-144" target="N6R94zlpCrdaRUp7dMYZ-128">
          <mxGeometry width="50" height="50" relative="1" as="geometry">
            <mxPoint x="386" y="330" as="sourcePoint" />
            <mxPoint x="519" y="409" as="targetPoint" />
          </mxGeometry>
        </mxCell>
      </root>
    </mxGraphModel>
  </diagram>
</mxfile>
